<svg id="レイヤー_1" data-name="レイヤー 1" xmlns="http://www.w3.org/2000/svg" viewBox="0 0 255.12 255.12"><defs><style>.cls-1{fill:#f39800;}.cls-2{fill:#1d2088;}.cls-3{fill:#00a29a;}.cls-4{fill:#231815;stroke:#231815;stroke-miterlimit:10;stroke-width:0.99px;}</style></defs><rect class="cls-1" x="94.72" y="150.93" width="31.8" height="31.8" rx="15.9"/><rect class="cls-1" x="134.47" y="160.41" width="31.8" height="31.8" rx="15.9"/><rect class="cls-2" x="174.22" y="142.3" width="31.8" height="31.8" rx="15.9"/><rect class="cls-2" x="54.88" y="160.41" width="31.8" height="31.8" rx="15.9"/><rect class="cls-1" x="114.6" y="54.95" width="31.8" height="31.8" rx="15.9"/><path class="cls-3" d="M151.49,53.26,160,84.89a4,4,0,0,0,6.75,1.81l23.15-23.15a4,4,0,0,0-1.81-6.75l-31.63-8.47A4,4,0,0,0,151.49,53.26Z"/><path class="cls-3" d="M111.43,87.6,103,56a4,4,0,0,0-6.74-1.8L73.05,77.32a4,4,0,0,0,1.81,6.75l31.63,8.47A4,4,0,0,0,111.43,87.6Z"/><path class="cls-4" d="M71.5,213.69a.54.54,0,0,1-1.07,0c0-3.07-1.5-10.66-3.78-10.66-1.56,0-2.94,2.92-3.72,6,1.44-.14,5.13-.39,5.7.22a.4.4,0,0,1-.07.6.63.63,0,0,1-.74,0l.09.06a28.22,28.22,0,0,0-5.22.08,20.05,20.05,0,0,0-.46,3.76.53.53,0,0,1-1,0c0-3.48,1.86-11.64,5.47-11.64C70.54,202.08,71.5,212.25,71.5,213.69Z"/><path class="cls-4" d="M74.83,213.65a.52.52,0,0,1-.45.54.53.53,0,0,1-.6-.39,56.31,56.31,0,0,1,.28-11.45.55.55,0,0,1,.62-.39.49.49,0,0,1,.43.54,38.74,38.74,0,0,0-.4,5c1.5-2,4.57-4.9,6.24-5.55a.57.57,0,0,1,.69.26.44.44,0,0,1-.27.61c-1.74.66-5.61,4.35-6.69,6.38A32.1,32.1,0,0,0,74.83,213.65Zm7.39-.18a.57.57,0,0,1-.72.19,9.5,9.5,0,0,1-4.75-5.95.48.48,0,0,1,.43-.54.54.54,0,0,1,.62.39,8.47,8.47,0,0,0,4.2,5.26A.46.46,0,0,1,82.22,213.47Z"/><path class="cls-4" d="M93.68,213.69a.53.53,0,0,1-1.06,0c0-3.07-1.5-10.66-3.78-10.66-1.56,0-2.94,2.92-3.72,6,1.44-.14,5.13-.39,5.7.22a.39.39,0,0,1-.08.6.62.62,0,0,1-.73,0l.09.06a28.21,28.21,0,0,0-5.22.08,19.34,19.34,0,0,0-.47,3.76.49.49,0,0,1-.52.47.5.5,0,0,1-.53-.47c0-3.48,1.86-11.64,5.48-11.64C92.72,202.08,93.68,212.25,93.68,213.69Z"/><path class="cls-4" d="M101.39,203a2.44,2.44,0,0,1,1,2.05,3,3,0,0,1-2,2.61c1.83.69,3.09,1.91,3.09,3.32a2.19,2.19,0,0,1-.77,1.72c-1.33,1.17-4,1.16-5.5,1.16H97a.51.51,0,0,1-.51-.35c-.73-2.25-.63-7.38-.18-9.42a.52.52,0,0,1,.62-.36.5.5,0,0,1,.43.45.28.28,0,0,1,0,.09,20.84,20.84,0,0,0-.35,4.2,20,20,0,0,0,.42,4.46c1.25,0,3.62,0,4.6-.9a1.3,1.3,0,0,0,.47-1.05c0-1.34-1.45-2.46-3.72-2.87a.5.5,0,0,1-.42-.51c0-.15.12-.33.53-.42s2.46-.39,2.46-2.13a1.49,1.49,0,0,0-.67-1.32c-1.25-.91-3.94-.67-4.54-.57a.52.52,0,0,1-.63-.36.46.46,0,0,1,.42-.55S99.52,201.68,101.39,203Z"/><path class="cls-4" d="M115.44,213.69a.5.5,0,0,1-.52.47.51.51,0,0,1-.54-.47c0-3.07-1.5-10.66-3.78-10.66-1.56,0-2.94,2.92-3.72,6,1.44-.14,5.13-.39,5.7.22a.39.39,0,0,1-.08.6.62.62,0,0,1-.73,0l.09.06a28.21,28.21,0,0,0-5.22.08,19.25,19.25,0,0,0-.46,3.76.5.5,0,0,1-.53.47.51.51,0,0,1-.53-.47c0-3.48,1.87-11.64,5.48-11.64C114.48,202.08,115.44,212.25,115.44,213.69Z"/><path class="cls-4" d="M127.29,208c0,2.08-.87,6.18-2.88,6.18-.31,0-.69,0-2.89-3.62a43.1,43.1,0,0,1-2.72-5.11,41.94,41.94,0,0,0,.37,8.19.5.5,0,0,1-.44.54.52.52,0,0,1-.6-.39c-.46-2.54-.71-8.4,0-11.46a.53.53,0,0,1,.61-.38.49.49,0,0,1,.43.56,12.4,12.4,0,0,0-.27,1.81h0a.55.55,0,0,1,.66.3,43.49,43.49,0,0,0,5,8.59c.69-.3,1.69-2.73,1.69-5.2a11.24,11.24,0,0,0-1-5.37.32.32,0,0,1-.06-.21.47.47,0,0,1,.28-.42.56.56,0,0,1,.72.21A12,12,0,0,1,127.29,208Z"/><path class="cls-4" d="M136.26,202.44a.49.49,0,0,1,.39.57.54.54,0,0,1-.64.35,8.56,8.56,0,0,0-3.65-.05c-.21.05-.87.23-1.12,1.74a27.26,27.26,0,0,0-.12,2.94,34,34,0,0,0,.31,5,19.59,19.59,0,0,0,4.82-.07.54.54,0,0,1,.64.34.46.46,0,0,1-.39.57,20.47,20.47,0,0,1-5.64,0,.5.5,0,0,1-.4-.38,36.68,36.68,0,0,1-.27-8.59c.24-1.41.85-2.24,1.87-2.51A9.6,9.6,0,0,1,136.26,202.44Zm-.27,4.74a.46.46,0,0,1,.23.63.57.57,0,0,1-.72.2,12.82,12.82,0,0,0-3.3.06.53.53,0,0,1-.6-.41.47.47,0,0,1,.45-.52S135.15,206.79,136,207.18Z"/><path class="cls-4" d="M146.07,203.42a5.4,5.4,0,0,1,2.13,4.66,5.5,5.5,0,0,1-1.72,4.35c-1.86,1.64-4.62,1.62-5.94,1.61h-.23a.52.52,0,0,1-.51-.33c-.75-2.27-.64-7.4-.18-9.44a.51.51,0,0,1,.62-.36.5.5,0,0,1,.43.45s0,.06,0,.09a20.84,20.84,0,0,0-.35,4.2,20.59,20.59,0,0,0,.41,4.46c1.24,0,3.54-.05,5-1.34a4.66,4.66,0,0,0,1.41-3.69,4.58,4.58,0,0,0-1.74-3.94c-2.22-1.59-5.82-1-6-.95a.52.52,0,0,1-.62-.36.46.46,0,0,1,.41-.55C139.65,202.2,143.51,201.57,146.07,203.42Z"/><path class="cls-4" d="M160.07,213.69a.54.54,0,0,1-1.07,0c0-3.07-1.5-10.66-3.78-10.66-1.56,0-2.94,2.92-3.72,6,1.44-.14,5.13-.39,5.7.22a.4.4,0,0,1-.07.6.63.63,0,0,1-.74,0l.09.06a28.22,28.22,0,0,0-5.22.08,20.05,20.05,0,0,0-.46,3.76.53.53,0,0,1-1.05,0c0-3.48,1.86-11.64,5.47-11.64C159.11,202.08,160.07,212.25,160.07,213.69Z"/><path class="cls-4" d="M163.52,213.65a.51.51,0,0,1-.45.54.53.53,0,0,1-.6-.39,49.87,49.87,0,0,1-.3-6.27,29.73,29.73,0,0,1,.3-5.18.54.54,0,0,1,.61-.39.49.49,0,0,1,.44.54,29.65,29.65,0,0,0-.3,5C163.22,207.89,163.38,212.9,163.52,213.65Z"/><path class="cls-4" d="M166.2,210.89c-.61,0-.33-.78-.19-.81a21.66,21.66,0,0,1,5.4-.08c.58.09.19.78.06.78Z"/><path class="cls-4" d="M180.18,202.44a.48.48,0,0,1,.39.57.54.54,0,0,1-.64.35,8.56,8.56,0,0,0-3.65-.05c-.21.05-.87.23-1.12,1.74a41,41,0,0,0,.25,8.61.46.46,0,0,1-.42.54.51.51,0,0,1-.61-.39,39.7,39.7,0,0,1-.26-8.89c.23-1.41.84-2.24,1.86-2.51A9.6,9.6,0,0,1,180.18,202.44Zm-.22,4.77a.42.42,0,0,1,.15.63.55.55,0,0,1-.72.15,11.84,11.84,0,0,0-3.27.08.53.53,0,0,1-.6-.41.48.48,0,0,1,.45-.52C176.72,207.05,179.19,206.78,180,207.21Z"/><path class="cls-4" d="M189.12,202.44a.49.49,0,0,1,.39.57.54.54,0,0,1-.64.35,8.56,8.56,0,0,0-3.65-.05c-.21.05-.87.23-1.12,1.74A27.26,27.26,0,0,0,184,208a34,34,0,0,0,.31,5,19.59,19.59,0,0,0,4.82-.07.54.54,0,0,1,.64.34.46.46,0,0,1-.39.57,20.47,20.47,0,0,1-5.64,0,.5.5,0,0,1-.4-.38,36.68,36.68,0,0,1-.27-8.59c.24-1.41.85-2.24,1.87-2.51A9.6,9.6,0,0,1,189.12,202.44Zm-.27,4.74a.46.46,0,0,1,.23.63.57.57,0,0,1-.72.2,12.82,12.82,0,0,0-3.3.06.53.53,0,0,1-.6-.41.47.47,0,0,1,.45-.52S188,206.79,188.85,207.18Z"/><path class="cls-4" d="M195.54,206.06c2,0,4.73,1.35,4.73,3.91a4,4,0,0,1-4.26,4.11,4.69,4.69,0,0,1-4.71-3.75.47.47,0,0,1,.45-.52.54.54,0,0,1,.6.4,3.65,3.65,0,0,0,3.66,2.94A3,3,0,0,0,199.2,210c0-2.11-2.38-3-3.66-3a.47.47,0,1,1,0-.93ZM196,202a5,5,0,0,1,3.55,1.41.45.45,0,0,1-.16.65.57.57,0,0,1-.72-.15,4.12,4.12,0,0,0-2.67-1c-1.53,0-3.06.84-3.06,2.7,0,2.24,2.46,2.72,3.06,2.72a.47.47,0,1,1,0,.94c-1.29,0-4.13-.93-4.13-3.66C191.88,203.21,194,202,196,202Z"/><path class="cls-2" d="M206,103c0-.25,0-.49,0-.74H206c-.67-6.81-7.5-12.16-15.83-12.16a18.61,18.61,0,0,0-6.8,1.27c-17,6.73-35.3,10.89-54.12,10.89H97c-21.48,0-39.19,13.44-41.73,30.79a11.32,11.32,0,0,0-.41,3c0,7.33,7.12,13.26,15.9,13.26h0A18.58,18.58,0,0,0,77.62,148a145,145,0,0,1,53.56-10.66H164c22.08,0,40.18-14.2,41.9-32.26a10.76,10.76,0,0,0,.15-1.71C206,103.27,206,103.15,206,103Z"/></svg>